<?xml version="1.0" standalone="no"?>
<!DOCTYPE svg PUBLIC "-//W3C//DTD SVG 20010904//EN"
 "http://www.w3.org/TR/2001/REC-SVG-20010904/DTD/svg10.dtd">
<svg version="1.0" xmlns="http://www.w3.org/2000/svg"
 width="100.000000pt" height="100.000000pt" viewBox="0 0 100.000000 100.000000"
 preserveAspectRatio="xMidYMid meet">

<g transform="translate(0.000000,100.000000) scale(0.100000,-0.100000)"
fill="#000000" stroke="none">
<path d="M65 888 c-3 -7 -4 -186 -3 -398 l3 -385 435 0 435 0 0 395 0 395
-433 3 c-341 2 -434 0 -437 -10z m430 -208 l0 -95 -165 0 -165 0 -3 84 c-2 46
-1 90 2 98 5 11 38 13 168 11 l163 -3 0 -95z m185 40 c11 -11 20 -29 20 -40 0
-11 -9 -29 -20 -40 -11 -11 -29 -20 -40 -20 -11 0 -29 9 -40 20 -11 11 -20 29
-20 40 0 11 9 29 20 40 11 11 29 20 40 20 11 0 29 -9 40 -20z m160 0 c11 -11
20 -29 20 -40 0 -11 -9 -29 -20 -40 -11 -11 -29 -20 -40 -20 -11 0 -29 9 -40
20 -11 11 -20 29 -20 40 0 11 9 29 20 40 11 11 29 20 40 20 11 0 29 -9 40 -20z
m-660 -342 c0 -46 3 -100 6 -120 6 -33 10 -38 34 -38 l28 0 7 120 c7 108 9
120 26 120 17 0 19 -9 19 -82 0 -46 3 -100 6 -121 6 -32 10 -37 34 -37 l28 0
7 120 c7 108 9 120 26 120 17 0 19 -9 19 -82 0 -46 3 -100 6 -120 6 -33 10
-38 34 -38 l28 0 7 120 8 120 58 0 59 0 0 -82 c0 -46 3 -100 6 -120 6 -33 10
-38 34 -38 l28 0 7 120 c7 108 9 120 26 120 17 0 19 -9 19 -82 0 -46 3 -100 6
-120 6 -33 10 -38 34 -38 l28 0 7 120 8 120 38 0 39 0 0 -160 0 -160 -400 0
-400 0 0 160 0 160 40 0 40 0 0 -82z"/>
<path d="M400 680 c0 -53 2 -60 20 -60 18 0 20 7 20 60 0 53 -2 60 -20 60 -18
0 -20 -7 -20 -60z"/>
<path d="M280 670 c0 -43 3 -50 20 -50 17 0 20 7 20 50 0 43 -3 50 -20 50 -17
0 -20 -7 -20 -50z"/>
<path d="M340 660 c0 -33 3 -40 20 -40 17 0 20 7 20 40 0 33 -3 40 -20 40 -17
0 -20 -7 -20 -40z"/>
<path d="M220 640 c0 -13 7 -20 20 -20 13 0 20 7 20 20 0 13 -7 20 -20 20 -13
0 -20 -7 -20 -20z"/>
</g>
</svg>
